<svg width="147" height="236" viewBox="0 0 147 236" fill="none" xmlns="http://www.w3.org/2000/svg">
<path d="M91 0L0 52L14 60L105 8L91 0Z" fill="#F1915B"/>
<path d="M91 32L84 36L140 68L147 64L105 40L91 32Z" fill="#F1915B"/>
<path d="M105 8L14 60V236L28 228V220V68L77 40L84 36L91 32L105 40V8Z" fill="#B5512F"/>
<path d="M14 60L0 52V228L14 236V60Z" fill="#94442A"/>
<path d="M147 224V64L140 68V228L147 224Z" fill="#B5512F"/>
<path fill-rule="evenodd" clip-rule="evenodd" d="M77 192L140 228V68L84 36L77 40V192ZM91 112V64L98 68L105 72L119 80V120V128L105 120L91 112ZM120.37 156.83C117.786 158.473 114.038 157.206 112 154C109.962 150.794 110.405 146.863 112.989 145.22C113.111 145.142 113.235 145.071 113.362 145.007L116.37 143.288C118.955 141.645 122.702 142.912 124.741 146.118C126.779 149.324 126.336 153.255 123.751 154.898L120.37 156.83Z" fill="#D4613C"/>
<path d="M112 154C114.038 157.206 117.786 158.473 120.37 156.83C122.955 155.187 123.398 151.256 121.36 148.05C119.417 144.995 115.923 143.7 113.362 145.007L112.989 145.22C110.405 146.863 109.962 150.794 112 154Z" fill="#E39345"/>
<path d="M121.36 148.05C123.398 151.256 122.955 155.187 120.37 156.83L123.751 154.898C126.336 153.255 126.779 149.324 124.741 146.118C122.702 142.912 118.955 141.645 116.37 143.288L113.362 145.007C115.923 143.7 119.417 144.995 121.36 148.05Z" fill="#F9AA53"/>
<path d="M91 64V112L98 108V68L91 64Z" fill="#9EAEB6"/>
<path d="M98 108L91 112L105 120V112L98 108Z" fill="#AFC0C8"/>
<path d="M98 68V108L105 112V72L98 68Z" fill="#BBD6E3"/>
<path d="M98 68V108L105 112V72L98 68Z" fill="#B5512F" fill-opacity="0.2"/>
<path d="M119 120V80L105 72V112L119 120Z" fill="#BBD6E3"/>
<path d="M119 128V120L105 112V120L119 128Z" fill="#AFC0C8"/>
</svg>
