<svg width="147" height="236" viewBox="0 0 147 236" fill="none" xmlns="http://www.w3.org/2000/svg">
<path fill-rule="evenodd" clip-rule="evenodd" d="M28 68V220L84 188V36L28 68ZM70 60V108L42 124V116V76L63 64L70 60ZM49 150C46.9618 153.206 43.2143 154.473 40.6297 152.83L37.2486 150.898C34.6641 149.255 34.2212 145.324 36.2594 142.118C38.2976 138.912 42.0451 137.645 44.6297 139.288L47.6383 141.007C47.7648 141.071 47.8891 141.142 48.0107 141.22C50.5953 142.863 51.0382 146.794 49 150Z" fill="#D4613C"/>
<path d="M91 0L0 52L14 60L105 8L91 0Z" fill="#F1915B"/>
<path d="M14 60L0 52V228L14 236V60Z" fill="#94442A"/>
<path d="M105 8L14 60V236L28 228V220V68L84 36L91 32V192L105 184V8Z" fill="#B5512F"/>
<path d="M63 64L42 76V116L63 104V64Z" fill="#BBD6E3"/>
<path d="M70 108V60L63 64V104L70 108Z" fill="#9EAEB6"/>
<path d="M42 124L70 108L63 104L42 116V124Z" fill="#AFC0C8"/>
<path d="M40.6297 152.83C43.2143 154.473 46.9618 153.206 49 150C51.0382 146.794 50.5953 142.863 48.0107 141.22L47.6383 141.007C45.0771 139.7 41.5827 140.995 39.6404 144.05C37.6022 147.256 38.0451 151.187 40.6297 152.83Z" fill="#F9AA53"/>
<path d="M40.6297 152.83C38.0451 151.187 37.6022 147.256 39.6404 144.05C41.5827 140.995 45.0771 139.7 47.6383 141.007L44.6297 139.288C42.0451 137.645 38.2976 138.912 36.2594 142.118C34.2212 145.324 34.6641 149.255 37.2486 150.898L40.6297 152.83Z" fill="#E39345"/>
<path d="M84 188L91 192V32L84 36V188Z" fill="#94442A"/>
</svg>
