<svg xmlns="http://www.w3.org/2000/svg" xmlns:xlink="http://www.w3.org/1999/xlink" width="1500" zoomAndPan="magnify" viewBox="0 0 1125 374.999991" height="500" preserveAspectRatio="xMidYMid meet" version="1.0"><defs><g/><clipPath id="a098bcf62f"><path d="M 128.070312 38.535156 L 427.320312 38.535156 L 427.320312 337.785156 L 128.070312 337.785156 Z M 128.070312 38.535156 " clip-rule="nonzero"/></clipPath><clipPath id="5ac26f3243"><path d="M 427.320312 188.160156 C 427.320312 190.609375 427.261719 193.054688 427.140625 195.5 C 427.019531 197.945312 426.839844 200.386719 426.597656 202.824219 C 426.359375 205.261719 426.058594 207.691406 425.699219 210.113281 C 425.339844 212.535156 424.921875 214.949219 424.445312 217.351562 C 423.96875 219.75 423.429688 222.140625 422.835938 224.515625 C 422.242188 226.890625 421.589844 229.25 420.878906 231.59375 C 420.167969 233.9375 419.398438 236.261719 418.574219 238.566406 C 417.75 240.871094 416.867188 243.15625 415.929688 245.417969 C 414.992188 247.679688 414 249.917969 412.953125 252.132812 C 411.90625 254.347656 410.808594 256.53125 409.652344 258.691406 C 408.5 260.851562 407.292969 262.980469 406.03125 265.082031 C 404.773438 267.183594 403.464844 269.25 402.105469 271.285156 C 400.742188 273.324219 399.332031 275.324219 397.875 277.289062 C 396.417969 279.257812 394.910156 281.1875 393.355469 283.082031 C 391.804688 284.972656 390.203125 286.828125 388.558594 288.640625 C 386.914062 290.457031 385.226562 292.230469 383.496094 293.960938 C 381.765625 295.691406 379.992188 297.378906 378.175781 299.023438 C 376.363281 300.667969 374.507812 302.265625 372.617188 303.820312 C 370.722656 305.375 368.792969 306.878906 366.828125 308.339844 C 364.859375 309.796875 362.859375 311.207031 360.820312 312.566406 C 358.785156 313.929688 356.71875 315.238281 354.617188 316.496094 C 352.515625 317.753906 350.386719 318.960938 348.226562 320.117188 C 346.066406 321.269531 343.882812 322.371094 341.667969 323.417969 C 339.453125 324.464844 337.214844 325.457031 334.953125 326.394531 C 332.691406 327.332031 330.40625 328.210938 328.101562 329.039062 C 325.796875 329.863281 323.472656 330.628906 321.128906 331.339844 C 318.785156 332.050781 316.425781 332.707031 314.050781 333.300781 C 311.675781 333.894531 309.285156 334.429688 306.886719 334.910156 C 304.484375 335.386719 302.070312 335.804688 299.648438 336.164062 C 297.226562 336.523438 294.796875 336.824219 292.359375 337.0625 C 289.925781 337.304688 287.484375 337.484375 285.035156 337.605469 C 282.589844 337.722656 280.144531 337.785156 277.695312 337.785156 C 275.246094 337.785156 272.800781 337.722656 270.351562 337.605469 C 267.90625 337.484375 265.464844 337.304688 263.027344 337.0625 C 260.59375 336.824219 258.164062 336.523438 255.742188 336.164062 C 253.316406 335.804688 250.90625 335.386719 248.503906 334.910156 C 246.101562 334.429688 243.714844 333.894531 241.339844 333.300781 C 238.964844 332.707031 236.605469 332.050781 234.261719 331.339844 C 231.917969 330.628906 229.59375 329.863281 227.289062 329.039062 C 224.980469 328.210938 222.699219 327.332031 220.4375 326.394531 C 218.171875 325.457031 215.9375 324.464844 213.722656 323.417969 C 211.507812 322.371094 209.320312 321.269531 207.164062 320.117188 C 205.003906 318.960938 202.871094 317.753906 200.773438 316.496094 C 198.671875 315.238281 196.605469 313.929688 194.566406 312.566406 C 192.53125 311.207031 190.53125 309.796875 188.5625 308.339844 C 186.597656 306.878906 184.667969 305.375 182.773438 303.820312 C 180.882812 302.265625 179.027344 300.667969 177.214844 299.023438 C 175.398438 297.378906 173.625 295.691406 171.894531 293.960938 C 170.164062 292.230469 168.476562 290.457031 166.832031 288.640625 C 165.1875 286.828125 163.585938 284.972656 162.035156 283.082031 C 160.480469 281.1875 158.972656 279.257812 157.515625 277.289062 C 156.054688 275.324219 154.648438 273.324219 153.285156 271.285156 C 151.925781 269.25 150.617188 267.183594 149.355469 265.082031 C 148.097656 262.980469 146.890625 260.851562 145.738281 258.691406 C 144.582031 256.53125 143.484375 254.347656 142.4375 252.132812 C 141.386719 249.917969 140.398438 247.679688 139.460938 245.417969 C 138.523438 243.15625 137.640625 240.871094 136.816406 238.566406 C 135.992188 236.261719 135.222656 233.9375 134.511719 231.59375 C 133.800781 229.25 133.148438 226.890625 132.554688 224.515625 C 131.960938 222.140625 131.421875 219.75 130.945312 217.351562 C 130.46875 214.949219 130.046875 212.535156 129.691406 210.113281 C 129.332031 207.691406 129.03125 205.261719 128.789062 202.824219 C 128.550781 200.386719 128.371094 197.945312 128.25 195.5 C 128.128906 193.054688 128.070312 190.609375 128.070312 188.160156 C 128.070312 185.710938 128.128906 183.261719 128.25 180.816406 C 128.371094 178.371094 128.550781 175.929688 128.789062 173.492188 C 129.03125 171.054688 129.332031 168.628906 129.691406 166.203125 C 130.046875 163.78125 130.46875 161.371094 130.945312 158.96875 C 131.421875 156.566406 131.960938 154.179688 132.554688 151.804688 C 133.148438 149.429688 133.800781 147.070312 134.511719 144.726562 C 135.222656 142.382812 135.992188 140.058594 136.816406 137.753906 C 137.640625 135.445312 138.523438 133.164062 139.460938 130.898438 C 140.398438 128.636719 141.386719 126.398438 142.4375 124.1875 C 143.484375 121.972656 144.582031 119.785156 145.738281 117.625 C 146.890625 115.46875 148.097656 113.335938 149.355469 111.238281 C 150.617188 109.136719 151.925781 107.066406 153.285156 105.03125 C 154.648438 102.996094 156.054688 100.996094 157.515625 99.027344 C 158.972656 97.0625 160.480469 95.132812 162.035156 93.238281 C 163.585938 91.34375 165.1875 89.492188 166.832031 87.675781 C 168.476562 85.863281 170.164062 84.089844 171.894531 82.359375 C 173.625 80.625 175.398438 78.9375 177.214844 77.292969 C 179.027344 75.648438 180.882812 74.050781 182.773438 72.496094 C 184.667969 70.945312 186.597656 69.4375 188.5625 67.980469 C 190.53125 66.519531 192.53125 65.109375 194.566406 63.75 C 196.605469 62.390625 198.671875 61.082031 200.773438 59.820312 C 202.871094 58.5625 205.003906 57.355469 207.164062 56.203125 C 209.320312 55.046875 211.507812 53.945312 213.722656 52.898438 C 215.9375 51.851562 218.171875 50.859375 220.4375 49.921875 C 222.699219 48.988281 224.980469 48.105469 227.289062 47.28125 C 229.59375 46.457031 231.917969 45.6875 234.261719 44.976562 C 236.605469 44.265625 238.964844 43.613281 241.339844 43.019531 C 243.714844 42.421875 246.101562 41.886719 248.503906 41.410156 C 250.90625 40.929688 253.316406 40.511719 255.742188 40.152344 C 258.164062 39.792969 260.59375 39.496094 263.027344 39.253906 C 265.464844 39.015625 267.90625 38.835938 270.351562 38.714844 C 272.800781 38.59375 275.246094 38.535156 277.695312 38.535156 C 280.144531 38.535156 282.589844 38.59375 285.035156 38.714844 C 287.484375 38.835938 289.925781 39.015625 292.359375 39.253906 C 294.796875 39.496094 297.226562 39.792969 299.648438 40.152344 C 302.070312 40.511719 304.484375 40.929688 306.886719 41.410156 C 309.285156 41.886719 311.675781 42.421875 314.050781 43.019531 C 316.425781 43.613281 318.785156 44.265625 321.128906 44.976562 C 323.472656 45.6875 325.796875 46.457031 328.101562 47.28125 C 330.40625 48.105469 332.691406 48.988281 334.953125 49.921875 C 337.214844 50.859375 339.453125 51.851562 341.667969 52.898438 C 343.882812 53.945312 346.066406 55.046875 348.226562 56.203125 C 350.386719 57.355469 352.515625 58.5625 354.617188 59.820312 C 356.71875 61.082031 358.785156 62.390625 360.820312 63.75 C 362.859375 65.109375 364.859375 66.519531 366.828125 67.980469 C 368.792969 69.4375 370.722656 70.945312 372.617188 72.496094 C 374.507812 74.050781 376.363281 75.648438 378.175781 77.292969 C 379.992188 78.9375 381.765625 80.625 383.496094 82.359375 C 385.226562 84.089844 386.914062 85.863281 388.558594 87.675781 C 390.203125 89.492188 391.804688 91.34375 393.355469 93.238281 C 394.910156 95.132812 396.417969 97.0625 397.875 99.027344 C 399.332031 100.996094 400.742188 102.996094 402.105469 105.03125 C 403.464844 107.066406 404.773438 109.136719 406.03125 111.238281 C 407.292969 113.335938 408.5 115.46875 409.652344 117.625 C 410.808594 119.785156 411.90625 121.972656 412.953125 124.1875 C 414 126.398438 414.992188 128.636719 415.929688 130.898438 C 416.867188 133.164062 417.75 135.445312 418.574219 137.753906 C 419.398438 140.058594 420.167969 142.382812 420.878906 144.726562 C 421.589844 147.070312 422.242188 149.429688 422.835938 151.804688 C 423.429688 154.179688 423.96875 156.566406 424.445312 158.96875 C 424.921875 161.371094 425.339844 163.78125 425.699219 166.203125 C 426.058594 168.628906 426.359375 171.054688 426.597656 173.492188 C 426.839844 175.929688 427.019531 178.371094 427.140625 180.816406 C 427.261719 183.261719 427.320312 185.710938 427.320312 188.160156 Z M 427.320312 188.160156 " clip-rule="nonzero"/></clipPath><linearGradient x1="-0.000000000838508" gradientTransform="matrix(299.249963, 0, 0, 299.249963, 128.070033, 38.534299)" y1="-0.000000000838508" x2="1" gradientUnits="userSpaceOnUse" y2="1" id="ba0a340506"><stop stop-opacity="1" stop-color="rgb(60.798645%, 22.698975%, 100%)" offset="0"/><stop stop-opacity="1" stop-color="rgb(60.560608%, 22.784424%, 100%)" offset="0.00390625"/><stop stop-opacity="1" stop-color="rgb(60.324097%, 22.871399%, 100%)" offset="0.0078125"/><stop stop-opacity="1" stop-color="rgb(60.08606%, 22.956848%, 100%)" offset="0.0117188"/><stop stop-opacity="1" stop-color="rgb(59.849548%, 23.042297%, 100%)" offset="0.015625"/><stop stop-opacity="1" stop-color="rgb(59.611511%, 23.127747%, 100%)" offset="0.0195313"/><stop stop-opacity="1" stop-color="rgb(59.375%, 23.214722%, 100%)" offset="0.0234375"/><stop stop-opacity="1" stop-color="rgb(59.136963%, 23.300171%, 100%)" offset="0.0273438"/><stop stop-opacity="1" stop-color="rgb(58.898926%, 23.387146%, 100%)" offset="0.03125"/><stop stop-opacity="1" stop-color="rgb(58.660889%, 23.472595%, 100%)" offset="0.0351562"/><stop stop-opacity="1" stop-color="rgb(58.424377%, 23.558044%, 100%)" offset="0.0390625"/><stop stop-opacity="1" stop-color="rgb(58.18634%, 23.643494%, 100%)" offset="0.0429688"/><stop stop-opacity="1" stop-color="rgb(57.949829%, 23.730469%, 100%)" offset="0.046875"/><stop stop-opacity="1" stop-color="rgb(57.711792%, 23.815918%, 100%)" offset="0.0507813"/><stop stop-opacity="1" stop-color="rgb(57.473755%, 23.902893%, 100%)" offset="0.0546875"/><stop stop-opacity="1" stop-color="rgb(57.235718%, 23.988342%, 100%)" offset="0.0585938"/><stop stop-opacity="1" stop-color="rgb(56.999207%, 24.073792%, 100%)" offset="0.0625"/><stop stop-opacity="1" stop-color="rgb(56.761169%, 24.159241%, 100%)" offset="0.0664062"/><stop stop-opacity="1" stop-color="rgb(56.524658%, 24.246216%, 100%)" offset="0.0703125"/><stop stop-opacity="1" stop-color="rgb(56.286621%, 24.331665%, 100%)" offset="0.0742188"/><stop stop-opacity="1" stop-color="rgb(56.048584%, 24.41864%, 100%)" offset="0.078125"/><stop stop-opacity="1" stop-color="rgb(55.810547%, 24.504089%, 100%)" offset="0.0820313"/><stop stop-opacity="1" stop-color="rgb(55.574036%, 24.589539%, 100%)" offset="0.0859375"/><stop stop-opacity="1" stop-color="rgb(55.335999%, 24.674988%, 100%)" offset="0.0898438"/><stop stop-opacity="1" stop-color="rgb(55.099487%, 24.761963%, 100%)" offset="0.09375"/><stop stop-opacity="1" stop-color="rgb(54.86145%, 24.847412%, 100%)" offset="0.0976562"/><stop stop-opacity="1" stop-color="rgb(54.624939%, 24.932861%, 100%)" offset="0.101562"/><stop stop-opacity="1" stop-color="rgb(54.386902%, 25.018311%, 100%)" offset="0.105469"/><stop stop-opacity="1" stop-color="rgb(54.148865%, 25.105286%, 100%)" offset="0.109375"/><stop stop-opacity="1" stop-color="rgb(53.910828%, 25.190735%, 100%)" offset="0.113281"/><stop stop-opacity="1" stop-color="rgb(53.674316%, 25.27771%, 100%)" offset="0.117188"/><stop stop-opacity="1" stop-color="rgb(53.436279%, 25.363159%, 100%)" offset="0.121094"/><stop stop-opacity="1" stop-color="rgb(53.199768%, 25.448608%, 100%)" offset="0.125"/><stop stop-opacity="1" stop-color="rgb(52.961731%, 25.534058%, 100%)" offset="0.128906"/><stop stop-opacity="1" stop-color="rgb(52.723694%, 25.621033%, 100%)" offset="0.132813"/><stop stop-opacity="1" stop-color="rgb(52.485657%, 25.706482%, 100%)" offset="0.136719"/><stop stop-opacity="1" stop-color="rgb(52.249146%, 25.793457%, 100%)" offset="0.140625"/><stop stop-opacity="1" stop-color="rgb(52.011108%, 25.878906%, 100%)" offset="0.144531"/><stop stop-opacity="1" stop-color="rgb(51.774597%, 25.964355%, 100%)" offset="0.148438"/><stop stop-opacity="1" stop-color="rgb(51.53656%, 26.049805%, 100%)" offset="0.152344"/><stop stop-opacity="1" stop-color="rgb(51.298523%, 26.13678%, 100%)" offset="0.15625"/><stop stop-opacity="1" stop-color="rgb(51.060486%, 26.222229%, 100%)" offset="0.160156"/><stop stop-opacity="1" stop-color="rgb(50.823975%, 26.309204%, 100%)" offset="0.164062"/><stop stop-opacity="1" stop-color="rgb(50.585938%, 26.394653%, 100%)" offset="0.167969"/><stop stop-opacity="1" stop-color="rgb(50.349426%, 26.480103%, 100%)" offset="0.171875"/><stop stop-opacity="1" stop-color="rgb(50.111389%, 26.565552%, 100%)" offset="0.175781"/><stop stop-opacity="1" stop-color="rgb(49.874878%, 26.652527%, 100%)" offset="0.179688"/><stop stop-opacity="1" stop-color="rgb(49.636841%, 26.737976%, 100%)" offset="0.183594"/><stop stop-opacity="1" stop-color="rgb(49.398804%, 26.824951%, 100%)" offset="0.1875"/><stop stop-opacity="1" stop-color="rgb(49.160767%, 26.9104%, 100%)" offset="0.191406"/><stop stop-opacity="1" stop-color="rgb(48.924255%, 26.99585%, 100%)" offset="0.195313"/><stop stop-opacity="1" stop-color="rgb(48.686218%, 27.081299%, 100%)" offset="0.199219"/><stop stop-opacity="1" stop-color="rgb(48.449707%, 27.168274%, 100%)" offset="0.203125"/><stop stop-opacity="1" stop-color="rgb(48.21167%, 27.253723%, 100%)" offset="0.207031"/><stop stop-opacity="1" stop-color="rgb(47.973633%, 27.339172%, 100%)" offset="0.210938"/><stop stop-opacity="1" stop-color="rgb(47.735596%, 27.424622%, 100%)" offset="0.214844"/><stop stop-opacity="1" stop-color="rgb(47.499084%, 27.511597%, 100%)" offset="0.21875"/><stop stop-opacity="1" stop-color="rgb(47.261047%, 27.597046%, 100%)" offset="0.222656"/><stop stop-opacity="1" stop-color="rgb(47.024536%, 27.684021%, 100%)" offset="0.226563"/><stop stop-opacity="1" stop-color="rgb(46.786499%, 27.76947%, 100%)" offset="0.230469"/><stop stop-opacity="1" stop-color="rgb(46.549988%, 27.854919%, 100%)" offset="0.234375"/><stop stop-opacity="1" stop-color="rgb(46.311951%, 27.940369%, 100%)" offset="0.238281"/><stop stop-opacity="1" stop-color="rgb(46.073914%, 28.027344%, 100%)" offset="0.242188"/><stop stop-opacity="1" stop-color="rgb(45.835876%, 28.112793%, 100%)" offset="0.246094"/><stop stop-opacity="1" stop-color="rgb(45.599365%, 28.199768%, 100%)" offset="0.25"/><stop stop-opacity="1" stop-color="rgb(45.361328%, 28.285217%, 100%)" offset="0.253906"/><stop stop-opacity="1" stop-color="rgb(45.124817%, 28.370667%, 100%)" offset="0.257812"/><stop stop-opacity="1" stop-color="rgb(44.88678%, 28.456116%, 100%)" offset="0.261719"/><stop stop-opacity="1" stop-color="rgb(44.648743%, 28.543091%, 100%)" offset="0.265625"/><stop stop-opacity="1" stop-color="rgb(44.410706%, 28.62854%, 100%)" offset="0.269531"/><stop stop-opacity="1" stop-color="rgb(44.174194%, 28.715515%, 100%)" offset="0.273438"/><stop stop-opacity="1" stop-color="rgb(43.936157%, 28.800964%, 100%)" offset="0.277344"/><stop stop-opacity="1" stop-color="rgb(43.699646%, 28.886414%, 100%)" offset="0.28125"/><stop stop-opacity="1" stop-color="rgb(43.461609%, 28.971863%, 100%)" offset="0.285156"/><stop stop-opacity="1" stop-color="rgb(43.223572%, 29.058838%, 100%)" offset="0.289062"/><stop stop-opacity="1" stop-color="rgb(42.985535%, 29.144287%, 100%)" offset="0.292969"/><stop stop-opacity="1" stop-color="rgb(42.749023%, 29.229736%, 100%)" offset="0.296875"/><stop stop-opacity="1" stop-color="rgb(42.510986%, 29.315186%, 100%)" offset="0.300781"/><stop stop-opacity="1" stop-color="rgb(42.274475%, 29.402161%, 100%)" offset="0.304688"/><stop stop-opacity="1" stop-color="rgb(42.036438%, 29.48761%, 100%)" offset="0.308594"/><stop stop-opacity="1" stop-color="rgb(41.799927%, 29.574585%, 100%)" offset="0.3125"/><stop stop-opacity="1" stop-color="rgb(41.56189%, 29.660034%, 100%)" offset="0.316406"/><stop stop-opacity="1" stop-color="rgb(41.323853%, 29.745483%, 100%)" offset="0.320313"/><stop stop-opacity="1" stop-color="rgb(41.085815%, 29.830933%, 100%)" offset="0.324219"/><stop stop-opacity="1" stop-color="rgb(40.849304%, 29.917908%, 100%)" offset="0.328125"/><stop stop-opacity="1" stop-color="rgb(40.611267%, 30.003357%, 100%)" offset="0.332031"/><stop stop-opacity="1" stop-color="rgb(40.374756%, 30.090332%, 100%)" offset="0.335938"/><stop stop-opacity="1" stop-color="rgb(40.136719%, 30.175781%, 100%)" offset="0.339844"/><stop stop-opacity="1" stop-color="rgb(39.898682%, 30.26123%, 100%)" offset="0.34375"/><stop stop-opacity="1" stop-color="rgb(39.660645%, 30.34668%, 100%)" offset="0.347656"/><stop stop-opacity="1" stop-color="rgb(39.424133%, 30.433655%, 100%)" offset="0.351563"/><stop stop-opacity="1" stop-color="rgb(39.186096%, 30.519104%, 100%)" offset="0.355469"/><stop stop-opacity="1" stop-color="rgb(38.949585%, 30.606079%, 100%)" offset="0.359375"/><stop stop-opacity="1" stop-color="rgb(38.711548%, 30.691528%, 100%)" offset="0.363281"/><stop stop-opacity="1" stop-color="rgb(38.473511%, 30.776978%, 100%)" offset="0.367188"/><stop stop-opacity="1" stop-color="rgb(38.235474%, 30.862427%, 100%)" offset="0.371094"/><stop stop-opacity="1" stop-color="rgb(37.998962%, 30.949402%, 100%)" offset="0.375"/><stop stop-opacity="1" stop-color="rgb(37.760925%, 31.034851%, 100%)" offset="0.378906"/><stop stop-opacity="1" stop-color="rgb(37.524414%, 31.121826%, 100%)" offset="0.382813"/><stop stop-opacity="1" stop-color="rgb(37.286377%, 31.207275%, 100%)" offset="0.386719"/><stop stop-opacity="1" stop-color="rgb(37.049866%, 31.292725%, 100%)" offset="0.390625"/><stop stop-opacity="1" stop-color="rgb(36.811829%, 31.378174%, 100%)" offset="0.394531"/><stop stop-opacity="1" stop-color="rgb(36.573792%, 31.465149%, 100%)" offset="0.398438"/><stop stop-opacity="1" stop-color="rgb(36.335754%, 31.550598%, 100%)" offset="0.402344"/><stop stop-opacity="1" stop-color="rgb(36.099243%, 31.636047%, 100%)" offset="0.40625"/><stop stop-opacity="1" stop-color="rgb(35.861206%, 31.721497%, 100%)" offset="0.410156"/><stop stop-opacity="1" stop-color="rgb(35.624695%, 31.808472%, 100%)" offset="0.414062"/><stop stop-opacity="1" stop-color="rgb(35.386658%, 31.893921%, 100%)" offset="0.417969"/><stop stop-opacity="1" stop-color="rgb(35.148621%, 31.980896%, 100%)" offset="0.421875"/><stop stop-opacity="1" stop-color="rgb(34.910583%, 32.066345%, 100%)" offset="0.425781"/><stop stop-opacity="1" stop-color="rgb(34.674072%, 32.151794%, 100%)" offset="0.429688"/><stop stop-opacity="1" stop-color="rgb(34.436035%, 32.237244%, 100%)" offset="0.433594"/><stop stop-opacity="1" stop-color="rgb(34.199524%, 32.324219%, 100%)" offset="0.4375"/><stop stop-opacity="1" stop-color="rgb(33.961487%, 32.409668%, 100%)" offset="0.441406"/><stop stop-opacity="1" stop-color="rgb(33.724976%, 32.496643%, 100%)" offset="0.445312"/><stop stop-opacity="1" stop-color="rgb(33.486938%, 32.582092%, 100%)" offset="0.449219"/><stop stop-opacity="1" stop-color="rgb(33.248901%, 32.667542%, 100%)" offset="0.453125"/><stop stop-opacity="1" stop-color="rgb(33.010864%, 32.752991%, 100%)" offset="0.457031"/><stop stop-opacity="1" stop-color="rgb(32.774353%, 32.839966%, 100%)" offset="0.460938"/><stop stop-opacity="1" stop-color="rgb(32.536316%, 32.925415%, 100%)" offset="0.464844"/><stop stop-opacity="1" stop-color="rgb(32.299805%, 33.01239%, 100%)" offset="0.46875"/><stop stop-opacity="1" stop-color="rgb(32.061768%, 33.097839%, 100%)" offset="0.472656"/><stop stop-opacity="1" stop-color="rgb(31.82373%, 33.183289%, 100%)" offset="0.476563"/><stop stop-opacity="1" stop-color="rgb(31.585693%, 33.268738%, 100%)" offset="0.480469"/><stop stop-opacity="1" stop-color="rgb(31.349182%, 33.355713%, 100%)" offset="0.484375"/><stop stop-opacity="1" stop-color="rgb(31.111145%, 33.441162%, 100%)" offset="0.488281"/><stop stop-opacity="1" stop-color="rgb(30.874634%, 33.526611%, 100%)" offset="0.492188"/><stop stop-opacity="1" stop-color="rgb(30.636597%, 33.612061%, 100%)" offset="0.496094"/><stop stop-opacity="1" stop-color="rgb(30.39856%, 33.699036%, 100%)" offset="0.5"/><stop stop-opacity="1" stop-color="rgb(30.160522%, 33.784485%, 100%)" offset="0.503906"/><stop stop-opacity="1" stop-color="rgb(29.924011%, 33.87146%, 100%)" offset="0.507812"/><stop stop-opacity="1" stop-color="rgb(29.685974%, 33.956909%, 100%)" offset="0.511719"/><stop stop-opacity="1" stop-color="rgb(29.449463%, 34.042358%, 100%)" offset="0.515625"/><stop stop-opacity="1" stop-color="rgb(29.211426%, 34.127808%, 100%)" offset="0.519531"/><stop stop-opacity="1" stop-color="rgb(28.974915%, 34.214783%, 100%)" offset="0.523438"/><stop stop-opacity="1" stop-color="rgb(28.736877%, 34.300232%, 100%)" offset="0.527344"/><stop stop-opacity="1" stop-color="rgb(28.49884%, 34.387207%, 100%)" offset="0.53125"/><stop stop-opacity="1" stop-color="rgb(28.260803%, 34.472656%, 100%)" offset="0.535156"/><stop stop-opacity="1" stop-color="rgb(28.024292%, 34.558105%, 100%)" offset="0.539062"/><stop stop-opacity="1" stop-color="rgb(27.786255%, 34.643555%, 100%)" offset="0.542969"/><stop stop-opacity="1" stop-color="rgb(27.549744%, 34.73053%, 100%)" offset="0.546875"/><stop stop-opacity="1" stop-color="rgb(27.311707%, 34.815979%, 100%)" offset="0.550781"/><stop stop-opacity="1" stop-color="rgb(27.073669%, 34.902954%, 100%)" offset="0.554687"/><stop stop-opacity="1" stop-color="rgb(26.835632%, 34.988403%, 100%)" offset="0.558594"/><stop stop-opacity="1" stop-color="rgb(26.599121%, 35.073853%, 100%)" offset="0.5625"/><stop stop-opacity="1" stop-color="rgb(26.361084%, 35.159302%, 100%)" offset="0.566406"/><stop stop-opacity="1" stop-color="rgb(26.124573%, 35.246277%, 100%)" offset="0.570312"/><stop stop-opacity="1" stop-color="rgb(25.886536%, 35.331726%, 100%)" offset="0.574219"/><stop stop-opacity="1" stop-color="rgb(25.648499%, 35.418701%, 100%)" offset="0.578125"/><stop stop-opacity="1" stop-color="rgb(25.410461%, 35.50415%, 100%)" offset="0.582031"/><stop stop-opacity="1" stop-color="rgb(25.17395%, 35.5896%, 100%)" offset="0.585937"/><stop stop-opacity="1" stop-color="rgb(24.935913%, 35.675049%, 100%)" offset="0.589844"/><stop stop-opacity="1" stop-color="rgb(24.699402%, 35.762024%, 100%)" offset="0.59375"/><stop stop-opacity="1" stop-color="rgb(24.461365%, 35.847473%, 100%)" offset="0.597656"/><stop stop-opacity="1" stop-color="rgb(24.224854%, 35.932922%, 100%)" offset="0.601562"/><stop stop-opacity="1" stop-color="rgb(23.986816%, 36.018372%, 100%)" offset="0.605469"/><stop stop-opacity="1" stop-color="rgb(23.748779%, 36.105347%, 100%)" offset="0.609375"/><stop stop-opacity="1" stop-color="rgb(23.510742%, 36.190796%, 100%)" offset="0.613281"/><stop stop-opacity="1" stop-color="rgb(23.274231%, 36.277771%, 100%)" offset="0.617187"/><stop stop-opacity="1" stop-color="rgb(23.036194%, 36.36322%, 100%)" offset="0.621094"/><stop stop-opacity="1" stop-color="rgb(22.799683%, 36.448669%, 100%)" offset="0.625"/><stop stop-opacity="1" stop-color="rgb(22.561646%, 36.534119%, 100%)" offset="0.628906"/><stop stop-opacity="1" stop-color="rgb(22.323608%, 36.621094%, 100%)" offset="0.632812"/><stop stop-opacity="1" stop-color="rgb(22.085571%, 36.706543%, 100%)" offset="0.636719"/><stop stop-opacity="1" stop-color="rgb(21.84906%, 36.793518%, 100%)" offset="0.640625"/><stop stop-opacity="1" stop-color="rgb(21.611023%, 36.878967%, 100%)" offset="0.644531"/><stop stop-opacity="1" stop-color="rgb(21.374512%, 36.964417%, 100%)" offset="0.648437"/><stop stop-opacity="1" stop-color="rgb(21.136475%, 37.049866%, 100%)" offset="0.652344"/><stop stop-opacity="1" stop-color="rgb(20.899963%, 37.136841%, 100%)" offset="0.65625"/><stop stop-opacity="1" stop-color="rgb(20.661926%, 37.22229%, 100%)" offset="0.660156"/><stop stop-opacity="1" stop-color="rgb(20.423889%, 37.309265%, 100%)" offset="0.664062"/><stop stop-opacity="1" stop-color="rgb(20.185852%, 37.394714%, 100%)" offset="0.667969"/><stop stop-opacity="1" stop-color="rgb(19.949341%, 37.480164%, 100%)" offset="0.671875"/><stop stop-opacity="1" stop-color="rgb(19.711304%, 37.565613%, 100%)" offset="0.675781"/><stop stop-opacity="1" stop-color="rgb(19.474792%, 37.652588%, 100%)" offset="0.679688"/><stop stop-opacity="1" stop-color="rgb(19.236755%, 37.738037%, 100%)" offset="0.683594"/><stop stop-opacity="1" stop-color="rgb(18.998718%, 37.823486%, 100%)" offset="0.6875"/><stop stop-opacity="1" stop-color="rgb(18.760681%, 37.908936%, 100%)" offset="0.691406"/><stop stop-opacity="1" stop-color="rgb(18.52417%, 37.995911%, 100%)" offset="0.695313"/><stop stop-opacity="1" stop-color="rgb(18.286133%, 38.08136%, 100%)" offset="0.699219"/><stop stop-opacity="1" stop-color="rgb(18.049622%, 38.168335%, 100%)" offset="0.703125"/><stop stop-opacity="1" stop-color="rgb(17.811584%, 38.253784%, 100%)" offset="0.707031"/><stop stop-opacity="1" stop-color="rgb(17.573547%, 38.339233%, 100%)" offset="0.710938"/><stop stop-opacity="1" stop-color="rgb(17.33551%, 38.424683%, 100%)" offset="0.714844"/><stop stop-opacity="1" stop-color="rgb(17.098999%, 38.511658%, 100%)" offset="0.71875"/><stop stop-opacity="1" stop-color="rgb(16.860962%, 38.597107%, 100%)" offset="0.722656"/><stop stop-opacity="1" stop-color="rgb(16.624451%, 38.684082%, 100%)" offset="0.726563"/><stop stop-opacity="1" stop-color="rgb(16.386414%, 38.769531%, 100%)" offset="0.730469"/><stop stop-opacity="1" stop-color="rgb(16.149902%, 38.85498%, 100%)" offset="0.734375"/><stop stop-opacity="1" stop-color="rgb(15.911865%, 38.94043%, 100%)" offset="0.738281"/><stop stop-opacity="1" stop-color="rgb(15.673828%, 39.027405%, 100%)" offset="0.742188"/><stop stop-opacity="1" stop-color="rgb(15.435791%, 39.112854%, 100%)" offset="0.746094"/><stop stop-opacity="1" stop-color="rgb(15.19928%, 39.199829%, 100%)" offset="0.75"/><stop stop-opacity="1" stop-color="rgb(14.961243%, 39.285278%, 100%)" offset="0.753906"/><stop stop-opacity="1" stop-color="rgb(14.724731%, 39.370728%, 100%)" offset="0.757813"/><stop stop-opacity="1" stop-color="rgb(14.486694%, 39.456177%, 100%)" offset="0.761719"/><stop stop-opacity="1" stop-color="rgb(14.248657%, 39.543152%, 100%)" offset="0.765625"/><stop stop-opacity="1" stop-color="rgb(14.01062%, 39.628601%, 100%)" offset="0.769531"/><stop stop-opacity="1" stop-color="rgb(13.774109%, 39.715576%, 100%)" offset="0.773438"/><stop stop-opacity="1" stop-color="rgb(13.536072%, 39.801025%, 100%)" offset="0.777344"/><stop stop-opacity="1" stop-color="rgb(13.299561%, 39.886475%, 100%)" offset="0.78125"/><stop stop-opacity="1" stop-color="rgb(13.061523%, 39.971924%, 100%)" offset="0.785156"/><stop stop-opacity="1" stop-color="rgb(12.823486%, 40.058899%, 100%)" offset="0.789063"/><stop stop-opacity="1" stop-color="rgb(12.585449%, 40.144348%, 100%)" offset="0.792969"/><stop stop-opacity="1" stop-color="rgb(12.348938%, 40.229797%, 100%)" offset="0.796875"/><stop stop-opacity="1" stop-color="rgb(12.110901%, 40.315247%, 100%)" offset="0.800781"/><stop stop-opacity="1" stop-color="rgb(11.87439%, 40.402222%, 100%)" offset="0.804688"/><stop stop-opacity="1" stop-color="rgb(11.636353%, 40.487671%, 100%)" offset="0.808594"/><stop stop-opacity="1" stop-color="rgb(11.399841%, 40.574646%, 100%)" offset="0.8125"/><stop stop-opacity="1" stop-color="rgb(11.161804%, 40.660095%, 100%)" offset="0.816406"/><stop stop-opacity="1" stop-color="rgb(10.923767%, 40.745544%, 100%)" offset="0.820313"/><stop stop-opacity="1" stop-color="rgb(10.68573%, 40.830994%, 100%)" offset="0.824219"/><stop stop-opacity="1" stop-color="rgb(10.449219%, 40.917969%, 100%)" offset="0.828125"/><stop stop-opacity="1" stop-color="rgb(10.211182%, 41.003418%, 100%)" offset="0.832031"/><stop stop-opacity="1" stop-color="rgb(9.97467%, 41.090393%, 100%)" offset="0.835938"/><stop stop-opacity="1" stop-color="rgb(9.736633%, 41.175842%, 100%)" offset="0.839844"/><stop stop-opacity="1" stop-color="rgb(9.498596%, 41.261292%, 100%)" offset="0.84375"/><stop stop-opacity="1" stop-color="rgb(9.260559%, 41.346741%, 100%)" offset="0.847656"/><stop stop-opacity="1" stop-color="rgb(9.024048%, 41.433716%, 100%)" offset="0.851563"/><stop stop-opacity="1" stop-color="rgb(8.786011%, 41.519165%, 100%)" offset="0.855469"/><stop stop-opacity="1" stop-color="rgb(8.5495%, 41.60614%, 100%)" offset="0.859375"/><stop stop-opacity="1" stop-color="rgb(8.311462%, 41.691589%, 100%)" offset="0.863281"/><stop stop-opacity="1" stop-color="rgb(8.074951%, 41.777039%, 100%)" offset="0.867188"/><stop stop-opacity="1" stop-color="rgb(7.836914%, 41.862488%, 100%)" offset="0.871094"/><stop stop-opacity="1" stop-color="rgb(7.598877%, 41.949463%, 100%)" offset="0.875"/><stop stop-opacity="1" stop-color="rgb(7.36084%, 42.034912%, 100%)" offset="0.878906"/><stop stop-opacity="1" stop-color="rgb(7.124329%, 42.120361%, 100%)" offset="0.882812"/><stop stop-opacity="1" stop-color="rgb(6.886292%, 42.205811%, 100%)" offset="0.886719"/><stop stop-opacity="1" stop-color="rgb(6.64978%, 42.292786%, 100%)" offset="0.890625"/><stop stop-opacity="1" stop-color="rgb(6.411743%, 42.378235%, 100%)" offset="0.894531"/><stop stop-opacity="1" stop-color="rgb(6.173706%, 42.46521%, 100%)" offset="0.898438"/><stop stop-opacity="1" stop-color="rgb(5.935669%, 42.550659%, 100%)" offset="0.902344"/><stop stop-opacity="1" stop-color="rgb(5.699158%, 42.636108%, 100%)" offset="0.90625"/><stop stop-opacity="1" stop-color="rgb(5.461121%, 42.721558%, 100%)" offset="0.910156"/><stop stop-opacity="1" stop-color="rgb(5.224609%, 42.808533%, 100%)" offset="0.914062"/><stop stop-opacity="1" stop-color="rgb(4.986572%, 42.893982%, 100%)" offset="0.917969"/><stop stop-opacity="1" stop-color="rgb(4.748535%, 42.980957%, 100%)" offset="0.921875"/><stop stop-opacity="1" stop-color="rgb(4.510498%, 43.066406%, 100%)" offset="0.925781"/><stop stop-opacity="1" stop-color="rgb(4.273987%, 43.151855%, 100%)" offset="0.929687"/><stop stop-opacity="1" stop-color="rgb(4.03595%, 43.237305%, 100%)" offset="0.933594"/><stop stop-opacity="1" stop-color="rgb(3.799438%, 43.32428%, 100%)" offset="0.9375"/><stop stop-opacity="1" stop-color="rgb(3.561401%, 43.409729%, 100%)" offset="0.941406"/><stop stop-opacity="1" stop-color="rgb(3.32489%, 43.496704%, 100%)" offset="0.945312"/><stop stop-opacity="1" stop-color="rgb(3.086853%, 43.582153%, 100%)" offset="0.949219"/><stop stop-opacity="1" stop-color="rgb(2.848816%, 43.667603%, 100%)" offset="0.953125"/><stop stop-opacity="1" stop-color="rgb(2.610779%, 43.753052%, 100%)" offset="0.957031"/><stop stop-opacity="1" stop-color="rgb(2.374268%, 43.840027%, 100%)" offset="0.960937"/><stop stop-opacity="1" stop-color="rgb(2.13623%, 43.925476%, 100%)" offset="0.964844"/><stop stop-opacity="1" stop-color="rgb(1.899719%, 44.012451%, 100%)" offset="0.96875"/><stop stop-opacity="1" stop-color="rgb(1.661682%, 44.0979%, 100%)" offset="0.972656"/><stop stop-opacity="1" stop-color="rgb(1.423645%, 44.18335%, 100%)" offset="0.976562"/><stop stop-opacity="1" stop-color="rgb(1.185608%, 44.268799%, 100%)" offset="0.980469"/><stop stop-opacity="1" stop-color="rgb(0.949097%, 44.355774%, 100%)" offset="0.984375"/><stop stop-opacity="1" stop-color="rgb(0.71106%, 44.441223%, 100%)" offset="0.988281"/><stop stop-opacity="1" stop-color="rgb(0.474548%, 44.526672%, 100%)" offset="0.992187"/><stop stop-opacity="1" stop-color="rgb(0.236511%, 44.612122%, 100%)" offset="0.996094"/><stop stop-opacity="1" stop-color="rgb(0%, 44.699097%, 100%)" offset="1"/></linearGradient></defs><g clip-path="url(#a098bcf62f)"><g clip-path="url(#5ac26f3243)"><path fill="url(#ba0a340506)" d="M 128.070312 38.535156 L 128.070312 337.785156 L 427.320312 337.785156 L 427.320312 38.535156 Z M 128.070312 38.535156 " fill-rule="nonzero"/></g></g><g fill="#ffffff" fill-opacity="1"><g transform="translate(500.402453, 275.361493)"><g><path d="M 42.359375 -169.46875 L 20.234375 -169.46875 L 20.234375 0 L 130.671875 0 L 130.671875 -19.28125 L 42.359375 -19.28125 Z M 42.359375 -169.46875 "/></g></g></g><g fill="#ffffff" fill-opacity="1"><g transform="translate(622.736839, 275.361493)"><g><path d="M 72.125 -45.46875 C 69.734375 -39.03125 67.359375 -31.890625 65.453125 -25.234375 C 63.546875 -31.890625 61.171875 -39.03125 58.796875 -45.46875 L 29.75 -122.8125 L 5.953125 -122.8125 L 55.453125 -1.1875 L 49.75 13.8125 C 44.75 26.65625 40.46875 30.234375 29.28125 30.234375 L 17.84375 30.234375 L 17.84375 48.5625 L 31.421875 48.5625 C 48.796875 48.5625 57.84375 42.84375 65.21875 24.046875 L 122.34375 -122.8125 L 99.734375 -122.8125 Z M 72.125 -45.46875 "/></g></g></g><g fill="#ffffff" fill-opacity="1"><g transform="translate(751.021737, 275.361493)"><g><path d="M 77.359375 -126.140625 C 58.796875 -126.140625 46.890625 -115.671875 39.515625 -99.25 L 39.515625 -122.8125 L 19.046875 -122.8125 L 19.046875 0 L 40.9375 0 L 40.9375 -67.125 C 41.890625 -92.109375 59.984375 -104.734375 76.171875 -104.734375 C 78.3125 -104.734375 80.6875 -104.734375 84.015625 -104.484375 L 84.015625 -125.671875 C 81.875 -125.90625 79.734375 -126.140625 77.359375 -126.140625 Z M 77.359375 -126.140625 "/></g></g></g><g fill="#ffffff" fill-opacity="1"><g transform="translate(837.417683, 275.361493)"><g><path d="M 127.34375 -16.1875 C 119.25 -16.1875 116.625 -18.796875 116.625 -26.890625 L 116.625 -86.875 C 116.625 -113.765625 99.015625 -126.140625 68.546875 -126.140625 C 36.890625 -126.140625 19.515625 -113.296875 17.375 -86.15625 L 39.03125 -86.15625 C 40.46875 -102.578125 49.265625 -108.0625 66.875 -108.0625 C 85.921875 -108.0625 94.5 -101.875 94.5 -89.015625 L 94.5 -84.25 C 94.5 -78.546875 91.640625 -75.6875 85.6875 -74.96875 L 54.265625 -70.921875 C 24.515625 -67.125 12.375 -52.84375 12.375 -32.609375 C 12.375 -10 28.5625 3.09375 53.546875 3.09375 C 74.5 3.09375 90.203125 -6.1875 98.0625 -18.09375 C 99.015625 -5.953125 106.15625 0 119.25 0 L 130.90625 0 L 130.90625 -16.1875 Z M 57.59375 -13.8125 C 43.3125 -13.8125 34.03125 -20.953125 34.03125 -33.5625 C 34.03125 -44.515625 40.703125 -52.125 57.84375 -54.75 L 94.5 -60.21875 L 94.5 -43.078125 C 94.5 -27.375 77.359375 -13.8125 57.59375 -13.8125 Z M 57.59375 -13.8125 "/></g></g></g></svg>