<svg xmlns="http://www.w3.org/2000/svg" viewBox="0 0 167.02 50.67"><defs><style>.cls-1{fill:#fff;}.cls-2{fill:#36a9e1;}.cls-3{fill:#1d71b8;}.cls-4{fill:#85c9f0;}</style></defs><title>qrt</title><g id="Layer_2" data-name="Layer 2"><g id="qrt"><path class="cls-1" d="M155.85,4.38H138.09v6.53h11.22v31.6h6.54V10.91H167V4.38ZM134.94,25.46A14.34,14.34,0,0,0,136.52,22a13.52,13.52,0,0,0,.57-3.95A13.14,13.14,0,0,0,136,12.74a14.18,14.18,0,0,0-2.94-4.33,13.88,13.88,0,0,0-4.34-2.94,13,13,0,0,0-5.31-1.09H109.14V42.51h6.54V10.91h7.73A7.16,7.16,0,0,1,130,15.33a7,7,0,0,1,0,5.44,7.6,7.6,0,0,1-1.52,2.35,7,7,0,0,1-5.07,2.12h-2.83l-2.67,6.54h4.47l6.92,10.73h7.79L129.3,30.42a13.74,13.74,0,0,0,5.64-5m-31.22,3.92a19.63,19.63,0,0,1-2.53,5.23l3.43,3.49v9.26L84.79,27.53V18.27l11.66,11.6a13.56,13.56,0,0,0,.65-11.55A12.91,12.91,0,0,0,94.22,14a13.54,13.54,0,0,0-4.31-2.92,13.06,13.06,0,0,0-5.12-1,12.9,12.9,0,0,0-5.06,1A13.54,13.54,0,0,0,75.42,14a13.09,13.09,0,0,0-2.89,4.3,13.35,13.35,0,0,0-1,5.07,13.48,13.48,0,0,0,1,5.09,13,13,0,0,0,2.89,4.33,12.83,12.83,0,0,0,4.31,2.89,13.07,13.07,0,0,0,5.06,1,12.66,12.66,0,0,0,1.39-.08c.46-.05.9-.12,1.34-.19l5.17,5.17a21.36,21.36,0,0,1-3.78,1.2,19.26,19.26,0,0,1-4.12.44,19.49,19.49,0,0,1-7.71-1.55,19.73,19.73,0,0,1-6.29-4.25,20.18,20.18,0,0,1-4.22-6.32A19.31,19.31,0,0,1,65,23.39a19.31,19.31,0,0,1,1.55-7.71,20.18,20.18,0,0,1,4.22-6.32,19.73,19.73,0,0,1,6.29-4.25,20,20,0,0,1,15.45,0,19.89,19.89,0,0,1,10.54,10.57,19.31,19.31,0,0,1,1.55,7.71,19.65,19.65,0,0,1-.9,6"/><polygon class="cls-2" points="7.6 8.62 7.6 16.19 14.28 12.41 7.6 8.62"/><polygon class="cls-2" points="14.6 20.5 14.6 12.93 7.91 16.72 14.6 20.5"/><polygon class="cls-2" points="6.99 16.19 6.99 8.62 0.31 12.41 6.99 16.19"/><polygon class="cls-2" points="22.8 8.62 22.8 16.19 29.48 12.41 22.8 8.62"/><polygon class="cls-2" points="29.8 20.5 29.8 12.93 23.12 16.72 29.8 20.5"/><polygon class="cls-2" points="38.01 8.62 38.01 16.19 44.69 12.41 38.01 8.62"/><polygon class="cls-2" points="37.4 16.19 37.4 8.62 30.72 12.41 37.4 16.19"/><polygon class="cls-2" points="15.2 12.93 15.2 20.5 21.88 16.72 15.2 12.93"/><polygon class="cls-2" points="22.8 17.24 22.8 24.81 29.48 21.02 22.8 17.24"/><polygon class="cls-2" points="22.2 24.81 22.2 17.24 15.52 21.02 22.2 24.81"/><polygon class="cls-2" points="30.41 12.93 30.41 20.5 37.09 16.72 30.41 12.93"/><polygon class="cls-2" points="14.6 11.88 14.6 4.31 7.91 8.1 14.6 11.88"/><polygon class="cls-2" points="22.8 0 22.8 7.58 29.48 3.79 22.8 0"/><polygon class="cls-2" points="22.2 0 15.52 3.79 22.2 7.58 22.2 0"/><polygon class="cls-2" points="30.41 4.31 30.41 11.88 37.09 8.1 30.41 4.31"/><polygon class="cls-2" points="22.2 16.19 22.2 8.62 15.52 12.41 22.2 16.19"/><polygon class="cls-2" points="15.2 4.31 15.2 11.88 21.88 8.1 15.2 4.31"/><polygon class="cls-2" points="29.8 11.88 29.8 4.31 23.12 8.1 29.8 11.88"/><polygon class="cls-3" points="0 12.93 0 20.5 6.68 16.72 0 12.93"/><polygon class="cls-3" points="7.6 17.24 7.6 24.81 14.28 21.02 7.6 17.24"/><polygon class="cls-3" points="6.99 24.81 6.99 17.24 0.31 21.02 6.99 24.81"/><polygon class="cls-3" points="15.2 21.55 15.2 29.12 21.88 25.34 15.2 21.55"/><polygon class="cls-3" points="22.2 33.43 22.2 25.86 15.52 29.64 22.2 33.43"/><polygon class="cls-3" points="14.6 29.12 14.6 21.55 7.91 25.34 14.6 29.12"/><polygon class="cls-3" points="7.6 25.86 7.6 33.43 14.28 29.64 7.6 25.86"/><polygon class="cls-3" points="15.2 30.17 15.2 37.74 21.88 33.95 15.2 30.17"/><polygon class="cls-3" points="14.6 37.74 14.6 30.17 7.91 33.95 14.6 37.74"/><polygon class="cls-3" points="7.6 34.48 7.6 42.05 14.28 38.26 7.6 34.48"/><polygon class="cls-3" points="0 21.55 0 29.12 6.68 25.34 0 21.55"/><polygon class="cls-3" points="6.99 33.43 6.99 25.86 0.31 29.64 6.99 33.43"/><polygon class="cls-3" points="0 30.17 0 37.74 6.68 33.95 0 30.17"/><polygon class="cls-3" points="6.99 42.05 6.99 34.48 0.31 38.26 6.99 42.05"/><polygon class="cls-3" points="22.2 42.05 22.2 34.48 15.52 38.26 22.2 42.05"/><polygon class="cls-3" points="15.2 38.78 15.2 46.36 21.88 42.57 15.2 38.78"/><polygon class="cls-3" points="22.2 50.67 22.2 43.09 15.52 46.88 22.2 50.67"/><polygon class="cls-3" points="14.6 46.36 14.6 38.78 7.91 42.57 14.6 46.36"/><polygon class="cls-4" points="37.4 24.81 37.4 17.24 30.72 21.02 37.4 24.81"/><polygon class="cls-4" points="29.8 29.12 29.8 21.55 23.12 25.34 29.8 29.12"/><polygon class="cls-4" points="22.8 25.86 22.8 33.43 29.48 29.64 22.8 25.86"/><polygon class="cls-4" points="29.8 37.74 29.8 30.17 23.12 33.95 29.8 37.74"/><polygon class="cls-4" points="22.8 34.48 22.8 42.05 29.48 38.26 22.8 34.48"/><polygon class="cls-4" points="30.41 30.17 30.41 37.74 37.09 33.95 30.41 30.17"/><polygon class="cls-4" points="30.41 21.55 30.41 29.12 37.09 25.34 30.41 21.55"/><polygon class="cls-4" points="45 20.5 45 12.93 38.32 16.72 45 20.5"/><polygon class="cls-4" points="38.01 17.24 38.01 24.81 44.69 21.02 38.01 17.24"/><polygon class="cls-4" points="22.8 43.09 22.8 50.67 29.48 46.88 22.8 43.09"/><polygon class="cls-4" points="29.8 46.36 29.8 38.78 23.12 42.57 29.8 46.36"/><polygon class="cls-4" points="30.41 38.78 30.41 46.36 37.09 42.57 30.41 38.78"/><polygon class="cls-4" points="38.01 34.48 38.01 42.05 44.69 38.26 38.01 34.48"/><polygon class="cls-4" points="38.01 25.86 38.01 33.43 44.69 29.64 38.01 25.86"/><polygon class="cls-4" points="45 37.74 45 30.17 38.32 33.95 45 37.74"/><polygon class="cls-4" points="37.4 42.05 37.4 34.48 30.72 38.26 37.4 42.05"/><polygon class="cls-4" points="37.4 33.43 37.4 25.86 30.72 29.64 37.4 33.43"/><polygon class="cls-4" points="45 29.12 45 21.55 38.32 25.34 45 29.12"/></g></g></svg>