<?xml version="1.0" encoding="UTF-8"?>
<svg xmlns="http://www.w3.org/2000/svg" id="Layer_1" data-name="Layer 1" version="1.1" viewBox="0 0 203 22">
  <defs>
    <style>
      .cls-1 {
        fill: #0c0c27;
        stroke-width: 0px;
      }
    </style>
  </defs>
  <g>
    <path class="cls-1" d="M34.99,21.56c-3.05,0-4.56-1.74-4.56-4.64v-7.67h-2.76v-2.99h2.76v-3.83l3.63-.9v4.73h3.8v2.99h-3.8v7.34c0,1.16.52,1.66,1.68,1.66.75,0,1.36-.03,2.35-.15v3.05c-1.02.26-2.03.4-3.11.4h0Z"></path>
    <path class="cls-1" d="M49.12,21.36v-9.32c0-1.74-.58-2.82-2.5-2.82-2.18,0-3.11,2.32-3.11,4.18v7.95h-3.63V.41h3.63v7.46c.87-1.28,2.55-1.97,4.12-1.97,3.22,0,5.11,2.29,5.11,5.4v10.07h-3.63Z"></path>
    <path class="cls-1" d="M68.49,14.95h-10.1c-.03,1.16.38,2.26,1.1,2.96.52.49,1.25.93,2.24.93,1.04,0,1.68-.2,2.21-.73.31-.32.58-.73.73-1.28h3.48c-.09.9-.7,2.09-1.28,2.79-1.27,1.51-3.16,2.12-5.08,2.12-2.06,0-3.57-.73-4.76-1.86-1.51-1.45-2.32-3.57-2.32-6.03s.73-4.56,2.18-6.04c1.13-1.16,2.76-1.91,4.82-1.91,2.24,0,4.27.9,5.51,2.79,1.1,1.66,1.36,3.37,1.31,5.25,0,0-.03.69-.03,1.01h0ZM63.97,9.67c-.49-.52-1.25-.87-2.29-.87-1.1,0-2,.47-2.53,1.16-.52.67-.75,1.36-.78,2.35h6.53c-.03-1.13-.35-2-.93-2.64h0Z"></path>
    <path class="cls-1" d="M76.31,4.26v17.1h-3.93V4.26h-6.09V.59h16.12v3.67h-6.09,0Z"></path>
    <path class="cls-1" d="M88.43,9.49c-2.55,0-3.89,1.83-3.89,4.27v7.6h-3.65V6.27h3.07l.32,2.27c.7-1.74,2.5-2.47,4.27-2.47.38,0,.76.03,1.13.09v3.48c-.4-.09-.84-.15-1.25-.15h0Z"></path>
    <path class="cls-1" d="M102.94,21.59c-1.57,0-2.44-.99-2.55-2.12-.7,1.22-2.44,2.26-4.59,2.26-3.6,0-5.45-2.26-5.45-4.73,0-2.87,2.23-4.53,5.11-4.73l4.44-.32v-.93c0-1.42-.5-2.38-2.56-2.38-1.68,0-2.67.75-2.76,2.15h-3.51c.2-3.4,2.9-4.91,6.27-4.91,2.59,0,4.79.81,5.66,3.08.38.96.44,2.03.44,3.05v5.6c0,.7.23.96.84.96.23,0,.47-.06.47-.06v2.67c-.62.26-.93.41-1.81.41h0ZM99.9,14.65l-3.83.29c-1.1.09-2.18.76-2.18,1.97s1.02,1.88,2.15,1.88c2.27,0,3.86-1.22,3.86-3.46v-.7h0Z"></path>
    <path class="cls-1" d="M116.56,21.36l-.23-1.65c-.9,1.39-2.59,2-4.24,2-1.51,0-2.76-.52-3.69-1.28-1.8-1.48-2.67-3.75-2.67-6.59s.9-5.25,2.7-6.74c.93-.75,2.15-1.22,3.69-1.22,1.92,0,3.31.64,3.95,1.42V.4h3.63v20.95h-3.14,0ZM112.82,8.94c-1.13,0-1.92.52-2.44,1.19-.76.99-.96,2.35-.96,3.66s.2,2.7.96,3.68c.52.67,1.31,1.19,2.44,1.19,2.84,0,3.43-2.7,3.43-4.87s-.58-4.85-3.43-4.85h0Z"></path>
    <path class="cls-1" d="M135.19,14.95h-10.1c-.03,1.16.38,2.26,1.1,2.96.52.49,1.25.93,2.23.93,1.05,0,1.68-.2,2.21-.73.32-.32.58-.73.73-1.28h3.48c-.09.9-.7,2.09-1.28,2.79-1.28,1.51-3.16,2.12-5.08,2.12-2.06,0-3.57-.72-4.76-1.86-1.51-1.45-2.32-3.57-2.32-6.03s.73-4.56,2.18-6.04c1.13-1.16,2.76-1.91,4.82-1.91,2.24,0,4.27.9,5.52,2.79,1.1,1.66,1.36,3.37,1.31,5.25,0,0-.03.69-.03,1.01h0ZM130.66,9.66c-.49-.52-1.25-.87-2.29-.87-1.1,0-2,.47-2.52,1.16-.52.67-.75,1.36-.78,2.35h6.53c-.03-1.13-.35-2-.93-2.64h0Z"></path>
    <path class="cls-1" d="M150.82,19.15c-1.36,1.42-3.43,2.2-5.78,2.2h-8.01V.78h8.01c2.35,0,4.41.78,5.78,2.2,2.12,2.18,2.41,5.23,2.41,8.07s-.29,5.92-2.41,8.1h0ZM147.95,5.31c-.7-.7-1.71-1.16-2.9-1.16h-4.27v13.84h4.27c1.19,0,2.21-.46,2.9-1.16,1.45-1.45,1.48-3.89,1.48-5.77s-.03-4.3-1.48-5.75Z"></path>
    <path class="cls-1" d="M168.2,14.95h-10.1c-.03,1.16.38,2.26,1.1,2.96.52.49,1.24.93,2.23.93,1.04,0,1.68-.2,2.21-.73.32-.32.58-.73.73-1.28h3.48c-.09.9-.7,2.09-1.28,2.79-1.28,1.51-3.16,2.12-5.08,2.12-2.06,0-3.57-.73-4.76-1.86-1.51-1.45-2.32-3.57-2.32-6.03s.73-4.56,2.18-6.04c1.13-1.16,2.76-1.91,4.82-1.91,2.24,0,4.27.9,5.52,2.79,1.1,1.66,1.36,3.37,1.31,5.25,0,0-.03.69-.03,1.01h0ZM163.67,9.67c-.49-.52-1.25-.87-2.29-.87-1.1,0-2,.47-2.53,1.16-.52.67-.76,1.36-.78,2.35h6.53c-.03-1.13-.35-2-.92-2.64h0Z"></path>
    <path class="cls-1" d="M183.67.4v20.95h3.63v-3.97l2.41-2.61,4.24,6.59h4.21l-5.98-9.26,5.4-5.83h-4.55l-5.72,6.13V.4h-3.63,0Z"></path>
    <path class="cls-1" d="M177.94,12.42c-1.48-.23-1.86-.26-3.22-.44-.81-.12-1.74-.44-1.74-1.51,0-.79.52-1.34,1.16-1.6.55-.23,1.05-.23,1.57-.23.75,0,1.54.26,1.97.7.35.38.61.84.61,1.42h3.46c0-1.1-.52-2.24-1.34-3.11-1.1-1.19-2.93-1.77-4.73-1.77s-3.48.55-4.59,1.51c-.9.79-1.54,1.86-1.54,3.4,0,1.91,1.39,3.6,3.46,4.03,1.33.29,2.84.38,4.18.58.93.15,1.51.73,1.51,1.6,0,1.66-1.86,1.92-3.08,1.92-1.04,0-1.71-.21-2.29-.67-.39-.31-.68-.87-.78-1.44h-3.41c.1,1.28.77,2.4,1.58,3.18,1.25,1.19,2.96,1.74,4.88,1.74,2.06,0,3.95-.52,5.16-1.74.78-.78,1.31-1.86,1.31-3.31,0-2.38-1.74-3.89-4.13-4.26h0Z"></path>
    <path class="cls-1" d="M200.96,6.22c-1.12,0-1.94-.87-1.94-1.97s.83-1.98,1.94-1.98,1.94.87,1.94,1.97c0,1.1-.82,1.98-1.94,1.98ZM200.96,2.61c-.95,0-1.58.7-1.58,1.63s.63,1.63,1.58,1.63,1.58-.69,1.58-1.63-.63-1.63-1.58-1.63h0ZM201.4,5.24l-.34-.75h-.4v.75h-.36v-2.06h.76c.39,0,.73.23.73.65,0,.27-.11.48-.37.59l.38.82h-.39ZM201.05,3.52h-.4v.63h.4c.21,0,.36-.1.36-.32s-.16-.32-.36-.32h0Z"></path>
  </g>
  <g>
    <path class="cls-1" d="M5.84,15.85v4.61C2.43,18.69.11,15.14.11,11.04c0-1.5.31-2.93.88-4.22h4.33c-.91,1.16-1.46,2.63-1.46,4.22,0,1.87.75,3.57,1.97,4.81Z"></path>
    <path class="cls-1" d="M21.31,11.04c0,5.86-4.75,10.6-10.6,10.6-.64,0-1.26-.06-1.87-.17v-3.85c.59.17,1.22.26,1.87.26,3.78,0,6.85-3.07,6.85-6.85,0-1.88-.76-3.59-1.99-4.82V1.62c3.41,1.76,5.74,5.32,5.74,9.43Z"></path>
    <polygon class="cls-1" points="4.78 .5 4.78 4.25 8.84 4.25 8.84 12.36 12.6 12.36 12.6 .5 4.78 .5"></polygon>
  </g>
</svg>
